HIERARCHY
ROOT Hips
{
	OFFSET 0.000000 0.000000 0.000000 
	CHANNELS 6 Xposition Yposition Zposition Zrotation Yrotation Xrotation
	JOINT LeftUpLeg
	{
		OFFSET 1.363060 -1.794630 0.839290 
		CHANNELS 3 Zrotation Yrotation Xrotation
		JOINT LeftLeg
		{
			OFFSET 2.448110 -6.726130 0.000000 
			CHANNELS 3 Zrotation Yrotation Xrotation
			JOINT LeftFoot
			{
				OFFSET 2.562200 -7.039590 0.000000 
				CHANNELS 3 Zrotation Yrotation Xrotation
				JOINT LeftToeBase
				{
					OFFSET 0.157640 -0.433110 2.322550 
					CHANNELS 3 Zrotation Yrotation Xrotation
					End Site
					{
						OFFSET 0.000000 0.000000 0.000000 
					}
				}
			}
		}
	}
	JOINT RightUpLeg
	{
		OFFSET -1.305520 -1.794630 0.839290 
		CHANNELS 3 Zrotation Yrotation Xrotation
		JOINT RightLeg
		{
			OFFSET -2.542530 -6.985550 0.000000 
			CHANNELS 3 Zrotation Yrotation Xrotation
			JOINT RightFoot
			{
				OFFSET -2.568260 -7.056230 0.000000 
				CHANNELS 3 Zrotation Yrotation Xrotation
				JOINT RightToeBase
				{
					OFFSET -0.164730 -0.452590 2.363150 
					CHANNELS 3 Zrotation Yrotation Xrotation
					End Site
					{
						OFFSET 0.000000 0.000000 0.000000 
					}
				}
			}
		}
	}
	JOINT Spine
	{
		OFFSET 0.028270 2.035590 -0.193380 
		CHANNELS 3 Zrotation Yrotation Xrotation
		JOINT Spine1
		{
			OFFSET 0.056720 2.048850 -0.042750 
			CHANNELS 3 Zrotation Yrotation Xrotation
			JOINT Neck1
			{
				OFFSET -0.054170 1.746240 0.172020 
				CHANNELS 3 Zrotation Yrotation Xrotation
				JOINT Head
				{
					OFFSET 0.104070 1.761360 -0.123970 
					CHANNELS 3 Zrotation Yrotation Xrotation
					End Site
					{
						OFFSET 0.000000 0.000000 0.000000 
					}
				}
			}
			JOINT LeftArm
			{
				OFFSET 3.362410 1.200890 -0.311210 
				CHANNELS 3 Zrotation Yrotation Xrotation
				JOINT LeftForeArm
				{
					OFFSET 4.983000 -0.000000 -0.000000 
					CHANNELS 3 Zrotation Yrotation Xrotation
					JOINT LeftHand
					{
						OFFSET 3.483560 -0.000000 -0.000000 
						CHANNELS 3 Zrotation Yrotation Xrotation
						JOINT LeftHandIndex1
						{
							OFFSET 0.715260 -0.000000 -0.000000 
							CHANNELS 3 Zrotation Yrotation Xrotation
							End Site
							{
								OFFSET 0.000000 0.000000 0.000000 
							}
						}
					}
				}
			}
			JOINT RightArm
			{
				OFFSET -3.136600 1.374050 -0.404650 
				CHANNELS 3 Zrotation Yrotation Xrotation
				JOINT RightForeArm
				{
					OFFSET -5.241900 -0.000000 -0.000000 
					CHANNELS 3 Zrotation Yrotation Xrotation
					JOINT RightHand
					{
						OFFSET -3.444170 -0.000000 -0.000000 
						CHANNELS 3 Zrotation Yrotation Xrotation
						JOINT RightHandIndex1
						{
							OFFSET -0.622530 -0.000000 -0.000000 
							CHANNELS 3 Zrotation Yrotation Xrotation
							End Site
							{
								OFFSET 0.000000 0.000000 0.000000 
							}
						}
					}
				}
			}
		}
	}
}
MOTION
Frames: 10
Frame Time: 0.041667
-5.351488 15.426766 -7.399360 66.519430 82.403427 72.470107 0.445968 14.100145 -23.571317 5.535388 14.268833 44.033762 5.016199 -9.423917 7.450605 6.689900 -15.065100 -47.691600 31.532324 1.075279 -59.469952 -18.027949 -23.275397 84.565529 2.326724 -9.212457 -5.464634 -0.110900 -2.147100 5.912400 0.572941 -3.896382 -2.196396 8.841751 -2.312635 -0.830944 14.658628 -21.724296 -0.538057 16.752700 -6.595300 -1.947000 -59.092142 -5.789982 23.885415 30.435703 -43.030449 -19.121975 -2.093783 -3.765438 -23.597472 -7.125000 0.000000 0.000000 71.551245 5.948097 -16.831181 -43.950409 45.787190 -32.349541 1.464650 1.944808 -55.958957 7.125000 0.000000 0.000000 
-4.988102 15.508459 -7.338757 64.755885 81.959245 71.166685 0.377983 14.011908 -21.914496 4.847000 13.635021 41.904886 4.909005 -8.788133 8.450268 6.736600 -15.106000 -47.871000 31.239204 1.555882 -60.162443 -17.491223 -23.341825 82.932183 2.835387 -10.832372 -5.416493 -0.126100 -2.289200 6.305700 0.580111 -4.339301 -2.183048 8.776788 -2.571353 -0.272542 14.431227 -21.249739 -0.216832 16.712400 -6.426500 -1.879400 -59.038736 -6.906537 24.265819 33.589469 -44.683640 -21.414039 -2.036729 -3.571635 -23.453904 -7.125000 0.000000 0.000000 73.595985 6.082691 -16.895780 -45.299140 46.481954 -33.596597 1.342649 2.048356 -60.239096 7.125000 0.000000 0.000000 
-4.611970 15.605794 -7.271086 64.218689 81.393460 70.841961 0.291898 13.521590 -20.001222 4.096604 12.918006 39.619478 4.792522 -8.199402 9.830704 6.623900 -15.006800 -47.437100 30.695443 1.676558 -60.536166 -16.907007 -23.342744 81.216655 3.082533 -11.594146 -5.436384 -0.177700 -2.715400 7.487400 0.690489 -4.977971 -2.331122 9.769677 -2.903759 -0.934720 13.890946 -20.148584 0.434707 16.338400 -6.178200 -1.785100 -60.061084 -6.596080 24.666814 37.177331 -46.444617 -24.108312 -2.020833 -3.219603 -23.176829 -7.125000 0.000000 0.000000 74.625542 5.485432 -16.397868 -46.589421 47.071843 -34.702133 1.215255 2.162142 -62.980121 7.125000 0.000000 0.000000 
-4.228305 15.706954 -7.203994 62.544250 80.847897 69.425004 0.245444 12.864723 -17.928769 3.342899 12.137049 37.227694 4.599118 -7.408254 11.406730 6.395500 -14.800900 -46.549100 30.078185 1.872842 -60.652063 -16.278879 -23.342464 79.502174 2.965365 -11.245710 -5.763471 -0.301300 -3.529300 9.756000 0.734687 -5.591376 -2.422999 9.908945 -3.188993 -1.033725 13.444284 -19.353243 0.994305 15.937700 -6.000700 -1.463100 -60.534160 -6.361558 25.306422 40.943047 -48.106391 -26.964960 -1.965654 -2.854577 -22.708540 -7.125000 0.000000 0.000000 76.003979 5.270650 -15.819589 -47.733618 47.591366 -35.682434 1.137939 2.201596 -63.910600 7.125000 0.000000 0.000000 
-3.843250 15.805564 -7.131687 59.902210 80.310673 67.178936 0.223290 12.214055 -15.846886 2.663727 11.320174 34.770753 4.077081 -5.660798 12.708756 6.461800 -14.861400 -46.808200 29.498670 2.287431 -60.751961 -15.691559 -23.349214 77.898567 2.916201 -11.121229 -6.048394 -0.556200 -4.777100 13.273900 0.779897 -6.084741 -2.504619 10.085303 -3.444099 -1.019398 13.058541 -18.655941 1.463170 15.598100 -5.822700 -1.153800 -61.085751 -5.836178 26.162158 45.133197 -49.828904 -30.223607 -1.890295 -2.432422 -21.993068 -7.125000 0.000000 0.000000 77.111381 5.140483 -15.088773 -48.708215 48.033037 -36.467986 1.123040 2.202799 -63.717352 7.125000 0.000000 0.000000 
-3.447534 15.904870 -7.053934 58.185197 79.855772 65.912122 0.208355 11.414716 -13.732081 2.024340 10.483963 32.273332 3.464523 -3.734226 14.131057 6.486400 -14.883700 -46.903900 29.033739 2.346036 -60.913290 -15.199173 -23.324964 76.490977 3.076146 -11.603231 -6.079326 -0.729200 -5.456100 15.214000 0.827901 -6.587091 -2.571839 10.112846 -3.701779 -0.955988 12.598611 -17.865738 1.930434 15.201100 -5.616700 -1.054000 -61.550493 -5.116859 27.310677 49.301644 -51.481961 -33.700550 -1.843850 -2.391100 -21.164321 -7.125000 0.000000 0.000000 78.117118 4.976497 -14.414494 -49.820881 48.534770 -37.421441 1.135474 2.194070 -63.154111 7.125000 0.000000 0.000000 
-3.040347 16.010548 -6.974675 57.747232 79.374676 65.833124 0.106789 10.335798 -11.574672 1.408192 9.645646 29.754399 2.802403 -1.713316 15.856617 6.405100 -14.809800 -46.586800 28.486032 2.018268 -60.978816 -14.787650 -23.266565 75.272393 3.273083 -12.174137 -6.043314 -0.774800 -5.620100 15.686000 0.880559 -7.147305 -2.640263 10.048588 -3.976814 -0.931540 12.045515 -17.033365 2.396150 14.658300 -5.410400 -1.052500 -61.898813 -4.214625 28.780704 53.260562 -52.926757 -36.860785 -1.798395 -2.124066 -20.150922 -7.125000 0.000000 0.000000 78.872758 4.826875 -13.979694 -50.953501 49.021422 -38.451216 1.161321 2.172047 -62.276913 7.125000 0.000000 0.000000 
-2.630611 16.117154 -6.893215 57.253674 78.844214 65.658906 -0.039496 9.099537 -9.390999 0.853411 8.814439 27.228526 2.034500 0.606456 17.682128 6.354200 -14.763000 -46.387000 27.881370 1.651557 -60.917808 -14.409367 -23.200252 74.169594 3.358168 -12.402375 -6.051813 -0.888700 -6.008900 16.810300 0.945311 -7.702761 -2.719499 10.168018 -4.272305 -0.875824 11.566874 -16.328401 2.830009 14.175800 -5.228500 -0.843100 -62.225762 -3.127569 30.392614 56.652952 -54.133595 -39.575252 -1.759032 -2.045124 -19.201532 -7.125000 0.000000 0.000000 79.185678 4.892690 -13.584946 -51.945612 49.414351 -39.366754 1.205392 2.139817 -60.778789 7.125000 0.000000 0.000000 
-2.216471 16.215532 -6.809321 56.335658 78.161909 65.085211 -0.276566 7.989974 -7.263347 0.370469 7.998922 24.729156 1.261916 3.002200 19.597987 6.231500 -14.649000 -45.903900 27.321712 1.292138 -60.847434 -14.102162 -23.134898 73.250613 3.464958 -12.685777 -5.976392 -1.002200 -6.370300 17.862800 1.086333 -8.425662 -2.829679 11.235819 -4.705056 -0.947615 11.029738 -15.154051 3.358150 13.905500 -4.826300 -0.773500 -63.230389 -1.283628 31.591099 59.792049 -55.302513 -42.046143 -1.754084 -1.823981 -17.906420 -7.125000 0.000000 0.000000 78.598162 5.052638 -12.461457 -52.970280 49.836005 -40.290547 1.252062 2.149615 -58.903879 7.125000 0.000000 0.000000 
-1.787731 16.317271 -6.724500 55.548948 77.524618 64.764883 -0.617286 6.927488 -5.163722 -0.036267 7.227870 22.256975 0.392741 5.765416 21.474716 6.116200 -14.540000 -45.446500 26.799443 0.676789 -60.771400 -13.884274 -23.086526 72.540188 3.648118 -13.188766 -5.875694 -1.079300 -6.603400 18.545500 1.003027 -8.520909 -2.810567 10.410921 -4.762809 -0.315405 10.560416 -15.008037 3.535762 13.183100 -4.826900 -0.621300 -62.565444 -0.804729 34.213786 62.134997 -56.103402 -43.610074 -1.754204 -1.719420 -16.738979 -7.125000 0.000000 0.000000 79.411342 5.694836 -13.173683 -54.663709 50.430032 -42.066313 1.311121 2.131027 -56.632777 7.125000 0.000000 0.000000 
